<svg width="1024" height="1024" viewBox="0 0 1024 1024" fill="none" xmlns="http://www.w3.org/2000/svg">
  <defs>
    <linearGradient id="bg" x1="168" y1="146" x2="878" y2="890" gradientUnits="userSpaceOnUse">
      <stop stop-color="#CCE7F5"/>
      <stop offset="0.52" stop-color="#7BC7B6"/>
      <stop offset="1" stop-color="#0B4D7D"/>
    </linearGradient>
    <radialGradient id="glow" cx="0" cy="0" r="1" gradientUnits="userSpaceOnUse" gradientTransform="translate(620 500) rotate(102) scale(470 470)">
      <stop stop-color="#D4E9DD" stop-opacity="0.7"/>
      <stop offset="1" stop-color="#D4E9DD" stop-opacity="0"/>
    </radialGradient>
    <filter id="shadow" x="220" y="262" width="610" height="465" filterUnits="userSpaceOnUse" color-interpolation-filters="sRGB">
      <feDropShadow dx="0" dy="8" stdDeviation="6" flood-color="#0F172A" flood-opacity="0.2"/>
    </filter>
  </defs>

  <rect x="110" y="110" width="804" height="804" rx="165" fill="url(#bg)"/>
  <rect x="110" y="110" width="804" height="804" rx="165" fill="url(#glow)"/>

  <g opacity="0.22" stroke="#D6FAF4" stroke-width="2">
    <path d="M305 690H820"/>
    <path d="M305 635H820"/>
    <path d="M305 580H820"/>
    <path d="M305 525H820"/>
    <path d="M305 470H820"/>
    <path d="M305 415H820"/>
    <path d="M305 360H820"/>
    <path d="M375 320V840"/>
    <path d="M435 320V840"/>
    <path d="M495 320V840"/>
    <path d="M555 320V840"/>
    <path d="M615 320V840"/>
    <path d="M675 320V840"/>
    <path d="M735 320V840"/>
  </g>

  <g stroke="#0F172A" stroke-width="9" stroke-linecap="round" stroke-linejoin="round">
    <path d="M230 545H803"/>
    <path d="M783 525L803 545L783 565"/>
    <path d="M230 760V290"/>
    <path d="M210 310L230 290L250 310"/>
    <path d="M210 740L230 760L250 740"/>
  </g>

  <g filter="url(#shadow)">
    <path d="M260 660L590 350H760" stroke="#F6E6CE" stroke-width="13" stroke-linecap="round" stroke-linejoin="round"/>
    <path d="M260 660L590 350H760" stroke="#F19A3A" stroke-width="9" stroke-linecap="round" stroke-linejoin="round"/>
  </g>

  <circle cx="590" cy="544" r="28" fill="#1F80F2" stroke="#F5FAFF" stroke-width="12"/>
</svg>
