<svg width="1024" height="1024" viewBox="0 0 1024 1024" fill="none" xmlns="http://www.w3.org/2000/svg">
  <defs>
    <linearGradient id="bg" x1="160" y1="110" x2="900" y2="910" gradientUnits="userSpaceOnUse">
      <stop stop-color="#E8F1F7"/>
      <stop offset="0.7" stop-color="#84CABF"/>
      <stop offset="1" stop-color="#1D627E"/>
    </linearGradient>
    <radialGradient id="soft" cx="0" cy="0" r="1" gradientUnits="userSpaceOnUse" gradientTransform="translate(520 420) rotate(90) scale(330)">
      <stop stop-color="white" stop-opacity="0.18"/>
      <stop offset="1" stop-color="white" stop-opacity="0"/>
    </radialGradient>
    <filter id="lineShadow" x="230" y="340" width="580" height="400" filterUnits="userSpaceOnUse" color-interpolation-filters="sRGB">
      <feGaussianBlur stdDeviation="7"/>
    </filter>
  </defs>

  <rect width="1024" height="1024" fill="url(#bg)"/>
  <rect width="1024" height="1024" fill="url(#soft)"/>

  <g opacity="0.15" stroke="white" stroke-width="2">
    <path d="M360 520V780M440 520V780M520 520V780M600 520V780M680 520V780M760 520V780"/>
    <path d="M330 540H820M330 600H820M330 660H820M330 720H820M330 780H820"/>
  </g>

  <g stroke="#111920" stroke-opacity="0.9" stroke-width="9" stroke-linecap="round" stroke-linejoin="round">
    <path d="M255 260V790"/>
    <path d="M236 280L255 260L274 280"/>
    <path d="M236 770L255 790L274 770"/>
    <path d="M225 555H790"/>
    <path d="M770 536L790 555L770 574"/>
  </g>

  <path d="M290 675L585 385H750" stroke="black" stroke-opacity="0.35" stroke-width="50" stroke-linecap="round" stroke-linejoin="round" filter="url(#lineShadow)"/>
  <path d="M290 675L585 385H750" stroke="#F59B3C" stroke-width="36" stroke-linecap="round" stroke-linejoin="round"/>
  <path d="M290 666L585 376H750" stroke="#FFDEAA" stroke-opacity="0.45" stroke-width="8" stroke-linecap="round" stroke-linejoin="round"/>

  <circle cx="560" cy="555" r="30" fill="#247BD6"/>
  <circle cx="560" cy="555" r="24" stroke="#EEF5FA" stroke-width="12"/>
</svg>
